<?xml version="1.0" standalone="no"?>
<!DOCTYPE svg PUBLIC "-//W3C//DTD SVG 20010904//EN"
 "http://www.w3.org/TR/2001/REC-SVG-20010904/DTD/svg10.dtd">
<svg version="1.0" xmlns="http://www.w3.org/2000/svg"
 width="512.000000pt" height="512.000000pt" viewBox="0 0 512.000000 512.000000"
 preserveAspectRatio="xMidYMid meet">

<g transform="translate(0.000000,512.000000) scale(0.100000,-0.100000)"
fill="#000000" stroke="none">
<path d="M2916 4704 c-32 -8 -90 -31 -130 -51 -62 -32 -106 -72 -347 -312
-248 -248 -280 -283 -312 -348 -51 -104 -60 -162 -54 -338 5 -158 14 -201 62
-296 91 -178 246 -297 419 -321 118 -17 111 -26 -136 -169 -925 -533 -1297
-769 -1416 -899 -94 -103 -189 -283 -221 -421 -48 -202 -34 -370 44 -571 7
-17 -11 -18 -292 -18 -338 0 -360 -4 -435 -69 -66 -58 -93 -120 -93 -211 1
-116 51 -197 155 -252 l45 -23 1230 -3 c923 -2 1237 1 1260 9 68 27 124 108
125 180 0 43 -53 135 -113 197 -39 40 -140 115 -168 124 -19 6 57 142 101 182
52 47 92 56 243 56 l127 0 0 -300 c0 -248 3 -307 15 -337 21 -50 42 -72 90
-94 37 -17 73 -19 433 -19 417 0 420 0 476 49 31 28 56 88 56 137 0 67 -33
127 -110 205 -72 72 -171 128 -270 153 -43 11 -55 18 -53 32 0 11 9 85 19 166
l17 147 57 40 c77 54 182 162 234 241 112 168 158 323 157 525 -1 191 -49 349
-150 503 -53 79 -164 201 -205 224 -14 8 -16 34 -16 203 l0 195 313 0 c357 0
389 5 532 75 103 50 206 130 256 201 109 152 242 392 254 458 15 77 -49 172
-132 195 -21 6 -94 11 -163 11 -153 0 -242 18 -339 67 -62 31 -104 67 -261
219 -163 158 -197 187 -261 217 -41 19 -98 40 -127 46 -83 17 -841 13 -916 -5z
m94 -641 c0 -258 -4 -495 -10 -527 -35 -215 -249 -356 -457 -302 -35 8 -80 26
-100 39 -56 36 -121 111 -151 175 -25 53 -27 68 -30 221 l-4 163 31 62 c25 51
73 103 288 317 275 273 316 303 426 318 4 1 7 -209 7 -466z m865 433 c46 -23
100 -69 230 -196 180 -177 229 -215 328 -260 67 -30 177 -60 219 -60 42 0 58
-10 78 -49 10 -20 38 -55 63 -78 l44 -41 -59 -98 c-70 -115 -120 -171 -202
-225 -111 -73 -147 -79 -490 -79 -325 1 -344 3 -412 55 -20 16 -50 50 -67 77
l-30 48 -95 0 -94 0 7 -27 c15 -65 58 -138 115 -197 l60 -63 0 -279 1 -279 77
-65 c209 -178 297 -353 296 -590 -1 -280 -125 -490 -386 -655 -56 -35 -48 -4
-88 -335 -16 -135 -32 -259 -35 -276 l-5 -30 112 -16 c143 -21 214 -47 278
-105 99 -89 119 -83 -275 -83 l-345 0 -2 468 -3 467 -92 3 -93 3 0 -95 0 -94
-147 -4 c-100 -3 -161 -10 -189 -21 l-41 -15 -7 93 c-15 212 -115 453 -239
573 l-33 32 -63 -64 -63 -64 52 -68 c154 -201 199 -455 123 -699 -9 -27 -42
-102 -74 -166 l-58 -116 102 -44 c108 -47 201 -108 230 -152 9 -14 17 -29 17
-32 0 -3 -230 -5 -511 -5 -572 0 -589 2 -734 70 -185 86 -324 238 -390 427
-81 233 -47 479 95 681 62 89 129 148 269 240 136 89 734 448 1164 697 l307
179 0 92 0 91 43 17 c98 37 221 155 272 260 58 119 58 118 62 674 l4 513 307
-3 307 -3 60 -29z m-2846 -3816 l89 -90 -438 0 -438 0 -26 31 c-33 39 -33 79
0 118 l26 31 349 0 349 0 89 -90z"/>
<path d="M3832 4230 c-97 -59 -92 -191 9 -242 66 -34 138 -12 179 54 73 120
-68 261 -188 188z"/>
</g>
</svg>
