<?xml version="1.0" encoding="utf-8"?>
<!-- Generator: Adobe Illustrator 24.1.1, SVG Export Plug-In . SVG Version: 6.00 Build 0)  -->
<svg version="1.1" id="Layer_1" xmlns="http://www.w3.org/2000/svg" xmlns:xlink="http://www.w3.org/1999/xlink" x="0px" y="0px"
	 viewBox="0 0 512 512" style="enable-background:new 0 0 512 512;" xml:space="preserve">
<style type="text/css">
	.st0{fill:#231F20;}
</style>
<g>
	<path class="st0" d="M491,297c-14.9-4.6-30.7,3.6-35.5,18.4C428,399.5,349,456.1,260.5,455c-111.1,1.3-202.2-87.6-203.8-198.7
		c1.6-111.1,92.7-199.9,203.8-198.7c48.2-0.1,94.9,16.6,132,47.4l-61.6-10.2c-15.5-2.5-30.1,7.9-32.6,23.4l0,0.2
		c-2.5,15.5,7.9,30.1,23.4,32.6l0.2,0L442.1,171h4.8c3.3,0,6.6-0.6,9.7-1.7l2.8-1.7l5.7-3.1l2.5-3.1l3.7-4.3l1.4-4l2-5.1l21.3-113.5
		c3-15.7-7.3-30.8-23-33.8c-15.7-3-30.8,7.3-33.8,23l-7.7,41.2C384.1,23.6,323.4,1,260.5,1C118.1-0.3,1.6,114,0,256.4
		c1.6,142.4,118.1,256.7,260.5,255.4c113.8,1.7,215.4-71,250.3-179.4c4.5-15-4.1-30.8-19.2-35.3L491,297z"/>
</g>
</svg>
